<?xml version="1.0" encoding="UTF-8"?> <!-- Generator: Adobe Illustrator 22.1.0, SVG Export Plug-In . SVG Version: 6.00 Build 0) --> <svg xmlns="http://www.w3.org/2000/svg" xmlns:xlink="http://www.w3.org/1999/xlink" version="1.1" id="Camada_1" x="0px" y="0px" viewBox="0 0 335 32.6" style="enable-background:new 0 0 335 32.6;" xml:space="preserve"> <style type="text/css"> .st0{fill:#3056F8;} .st1{fill:#ADADAD;} </style> <path class="st0" d="M44.7,0.6v31.5h-7.1V21.9c0-1.4-1.1-2.5-2.5-2.5H9.6c-1.4,0-2.5,1.1-2.5,2.5v10.2H0V0.6h7.1v10.1 c0,1.4,1.1,2.5,2.5,2.5H35c1.4,0,2.5-1.1,2.5-2.5V0.6H44.7z"></path> <path class="st0" d="M75,0c-8.3,0-14.6,1.5-18.9,4.4c-4,2.8-6.1,6.8-6.1,11.9c0,10.5,8.9,16.3,24.9,16.3c16.1,0,25-5.8,25-16.3 C100,5.8,91.1,0,75,0 M92.6,16.4c0,8.4-9.6,10.2-17.6,10.2c-8,0-17.6-1.8-17.6-10.2c0-6.7,6.1-10.3,17.6-10.3 C83,6.1,92.6,7.9,92.6,16.4"></path> <path class="st0" d="M141.7,16c4.6-0.9,6.8-3.3,6.8-7.3c0-5.7-4.1-8.1-13.9-8.1h-29.3v31.5h7v-8.3c0-1.4,1.1-2.5,2.5-2.5h19.4 c4.4,0,5.8,1,6.2,4.4l0.7,6.4h7l-1-8.8C146.8,19.4,144.9,16.9,141.7,16 M133.3,15.4h-20.9V6.5h20.8c6.8,0,8.2,1.7,8.2,4.4 C141.3,14.1,139,15.4,133.3,15.4"></path> <path class="st0" d="M199.3,0.6v31.5h-7.1v-6.6c0-0.3-0.2-0.5-0.4-0.5c-0.1,0-0.4-0.1-0.6,0.2c-3.1,5.1-9,7.5-18,7.5 c-13.6,0-19.4-4.5-19.4-15.1V0.6h7.1v16.5c0,7,3.6,9.4,13.7,9.4c8,0,14.1-2.5,17.6-7.2V0.6H199.3z"></path> <path class="st0" d="M247.9,22.3c0,3.5-1.4,6-4.5,7.6c-3.4,1.8-9,2.7-17.1,2.7c-7.9,0-15.2-0.7-20.1-2l0.2-6.3 c5.2,1.6,12.3,2.5,20.1,2.5c11.6,0,13.9-1.5,13.9-3.8c0-1.5-0.5-2.8-7.1-3.2l-14.6-0.8c-9.6-0.5-13.7-3.2-13.7-8.8 c0-7,6.9-10.1,22.3-10.1c10.4,0,16.8,1.2,19.1,1.7l-0.2,6.1c-5.1-1-12.3-1.6-19.1-1.6c-13.3,0-14.9,2.1-14.9,3.7 c0,1.7,1.1,2.7,7,3.1l14.4,0.9C243.9,14.4,247.9,16.8,247.9,22.3"></path> <path class="st1" d="M263.3,13.2h1.5c0.1,0.7,0.4,1.2,0.8,1.5c0.5,0.3,1.1,0.5,1.8,0.5c0.4,0,0.7,0,1-0.1c0.3-0.1,0.6-0.2,0.8-0.3 c0.2-0.1,0.4-0.3,0.5-0.5c0.1-0.2,0.2-0.5,0.2-0.7c0-0.5-0.1-0.8-0.4-1.1c-0.3-0.3-0.7-0.5-1.2-0.6l-2.1-0.6 c-0.9-0.2-1.5-0.6-1.9-1.1c-0.4-0.5-0.6-1.1-0.6-1.9c0-0.4,0.1-0.8,0.3-1.1c0.2-0.3,0.4-0.6,0.7-0.9c0.3-0.2,0.7-0.4,1.1-0.6 c0.4-0.1,0.9-0.2,1.5-0.2c0.5,0,1,0.1,1.4,0.2c0.4,0.1,0.8,0.3,1.2,0.6c0.3,0.3,0.6,0.6,0.8,1c0.2,0.4,0.3,0.9,0.4,1.4h-1.5 c0-0.4-0.1-0.6-0.3-0.9c-0.1-0.2-0.3-0.4-0.5-0.6c-0.2-0.1-0.5-0.2-0.7-0.3c-0.3-0.1-0.5-0.1-0.8-0.1c-0.7,0-1.2,0.1-1.6,0.4 c-0.4,0.3-0.6,0.6-0.6,1.1c0,0.5,0.1,0.9,0.4,1.1c0.3,0.2,0.7,0.4,1.3,0.6l1.7,0.5c0.5,0.1,0.9,0.3,1.2,0.4s0.7,0.4,0.9,0.6 c0.2,0.2,0.4,0.5,0.6,0.8c0.1,0.3,0.2,0.7,0.2,1.1c0,0.5-0.1,0.9-0.3,1.3c-0.2,0.4-0.5,0.7-0.9,1c-0.4,0.3-0.8,0.5-1.3,0.6 c-0.5,0.1-1,0.2-1.5,0.2s-1-0.1-1.5-0.2c-0.5-0.1-0.9-0.3-1.3-0.6c-0.4-0.3-0.7-0.6-0.9-1C263.5,14.3,263.4,13.8,263.3,13.2"></path> <path class="st1" d="M273.3,16.3V8.4h1.4v1.3c0.2-0.4,0.5-0.8,0.8-1.1c0.4-0.3,0.8-0.4,1.4-0.4c0.5,0,1,0.1,1.4,0.4 c0.4,0.3,0.7,0.7,0.9,1.2c0.2-0.5,0.5-0.9,0.9-1.2c0.4-0.3,0.9-0.5,1.5-0.5c0.3,0,0.7,0.1,1,0.2c0.3,0.1,0.6,0.3,0.8,0.5 c0.2,0.2,0.4,0.5,0.5,0.9c0.1,0.4,0.2,0.8,0.2,1.3v5.3h-1.4v-5.1c0-0.6-0.1-1-0.3-1.4c-0.2-0.3-0.6-0.5-1.1-0.5 c-0.2,0-0.5,0.1-0.7,0.2c-0.2,0.1-0.4,0.3-0.6,0.5c-0.2,0.2-0.3,0.5-0.4,0.8c-0.1,0.3-0.1,0.6-0.1,1v4.6h-1.4v-5.1 c0-0.6-0.1-1-0.3-1.4c-0.2-0.3-0.6-0.5-1.1-0.5c-0.2,0-0.5,0.1-0.7,0.2c-0.2,0.1-0.4,0.3-0.6,0.5c-0.2,0.2-0.3,0.5-0.4,0.8 c-0.1,0.3-0.1,0.6-0.1,1v4.6H273.3z"></path> <path class="st1" d="M285.8,14.1c0-0.6,0.2-1.2,0.6-1.6c0.4-0.4,1-0.7,1.8-0.8l2.6-0.2v-0.6c0-0.3,0-0.6-0.1-0.8 c-0.1-0.2-0.2-0.4-0.3-0.5c-0.1-0.1-0.3-0.2-0.5-0.3c-0.2,0-0.4-0.1-0.7-0.1c-0.5,0-0.9,0.1-1.2,0.3c-0.3,0.2-0.4,0.6-0.4,1.1H286 c0-0.4,0.1-0.7,0.2-1c0.2-0.3,0.4-0.6,0.7-0.8c0.3-0.2,0.6-0.4,1-0.5c0.4-0.1,0.8-0.2,1.2-0.2c0.4,0,0.8,0.1,1.2,0.2 c0.4,0.1,0.7,0.3,1,0.5c0.3,0.2,0.5,0.5,0.6,0.8c0.1,0.3,0.2,0.7,0.2,1.2v4.2h1.2v1.2h-2.4l0-1.5h-0.1c-0.2,0.6-0.5,1-1,1.2 c-0.4,0.3-0.9,0.4-1.5,0.4c-0.4,0-0.8-0.1-1.1-0.2c-0.3-0.1-0.6-0.3-0.8-0.5c-0.2-0.2-0.4-0.5-0.5-0.7 C285.8,14.7,285.8,14.4,285.8,14.1 M287.2,14.3c0,0.4,0.1,0.6,0.4,0.8c0.3,0.2,0.6,0.3,1,0.3c0.6,0,1.1-0.2,1.5-0.7 c0.4-0.5,0.5-1,0.5-1.7v-0.4l-2.8,0.3c-0.3,0-0.5,0.1-0.5,0.2c-0.1,0.1-0.1,0.3-0.1,0.5V14.3z"></path> <polygon class="st1" points="294.7,16.3 294.7,8.4 298.5,8.4 298.5,9.6 296.1,9.6 296.1,16.3 "></polygon> <polygon class="st1" points="299.7,9.6 299.7,8.4 301.1,8.4 301.1,5.7 302.5,5.7 302.5,8.4 304.3,8.4 304.3,9.6 302.5,9.6 302.5,15.1 304.3,15.1 304.3,16.3 301.1,16.3 301.1,9.6 "></polygon> <path class="st1" d="M263.5,28c0-0.6,0.1-1.1,0.2-1.6c0.1-0.5,0.3-0.9,0.6-1.3c0.3-0.4,0.6-0.7,1-0.9c0.4-0.2,0.9-0.3,1.4-0.3 c0.6,0,1.1,0.1,1.5,0.4c0.4,0.3,0.8,0.6,1,1.1v-3.9h1.4V32h-1.4v-1.3c-0.2,0.5-0.6,0.8-1,1.1c-0.4,0.3-0.9,0.4-1.5,0.4 c-0.5,0-1-0.1-1.4-0.3c-0.4-0.2-0.7-0.5-1-0.9c-0.3-0.4-0.5-0.8-0.6-1.3C263.6,29.2,263.5,28.6,263.5,28 M265,29.3 c0,0.3,0.1,0.5,0.2,0.7c0.1,0.2,0.2,0.4,0.4,0.6c0.2,0.2,0.4,0.3,0.6,0.4c0.2,0.1,0.5,0.1,0.8,0.1c0.7,0,1.2-0.2,1.6-0.7 c0.4-0.4,0.6-1,0.6-1.7v-1.3c0-0.7-0.2-1.2-0.6-1.7c-0.4-0.4-0.9-0.7-1.6-0.7c-0.3,0-0.6,0-0.8,0.1c-0.2,0.1-0.5,0.2-0.6,0.4 c-0.2,0.2-0.3,0.3-0.4,0.6c-0.1,0.2-0.2,0.5-0.2,0.7V29.3z"></path> <path class="st1" d="M272.5,28c0-0.6,0.1-1.2,0.2-1.7c0.1-0.5,0.4-1,0.7-1.3c0.3-0.4,0.7-0.6,1.1-0.9c0.4-0.2,0.9-0.3,1.5-0.3 c0.6,0,1.1,0.1,1.5,0.3c0.4,0.2,0.8,0.5,1,0.8c0.3,0.3,0.5,0.7,0.6,1.2c0.1,0.5,0.2,1,0.2,1.5v0.7H274v0.8c0,0.3,0.1,0.5,0.2,0.8 c0.1,0.2,0.3,0.4,0.4,0.6c0.2,0.2,0.4,0.3,0.6,0.3c0.2,0.1,0.5,0.1,0.7,0.1c0.5,0,0.9-0.1,1.3-0.4c0.4-0.3,0.6-0.7,0.6-1.2h1.4 c0,0.4-0.1,0.8-0.3,1.1c-0.2,0.3-0.4,0.6-0.7,0.8c-0.3,0.2-0.6,0.4-1,0.5c-0.4,0.1-0.8,0.2-1.2,0.2c-0.6,0-1.1-0.1-1.5-0.3 c-0.4-0.2-0.8-0.5-1.1-0.9c-0.3-0.4-0.5-0.8-0.6-1.3C272.6,29.2,272.5,28.7,272.5,28 M274,27.3h3.9v-0.4c0-0.3-0.1-0.5-0.2-0.8 c-0.1-0.2-0.2-0.4-0.4-0.6c-0.2-0.2-0.4-0.3-0.6-0.4c-0.2-0.1-0.5-0.1-0.7-0.1c-0.3,0-0.5,0-0.7,0.1c-0.2,0.1-0.4,0.2-0.6,0.4 c-0.2,0.2-0.3,0.4-0.4,0.6c-0.1,0.2-0.2,0.5-0.2,0.8V27.3z"></path> <polygon class="st1" points="280.4,25.3 280.4,24.1 281.7,24.1 281.7,21.4 283.1,21.4 283.1,24.1 284.9,24.1 284.9,25.3 283.1,25.3 283.1,30.8 284.9,30.8 284.9,32 281.7,32 281.7,25.3 "></polygon> <path class="st1" d="M286.1,28c0-0.6,0.1-1.2,0.2-1.7c0.1-0.5,0.4-1,0.7-1.3c0.3-0.4,0.7-0.6,1.1-0.9c0.4-0.2,0.9-0.3,1.5-0.3 c0.6,0,1.1,0.1,1.5,0.3c0.4,0.2,0.8,0.5,1,0.8c0.3,0.3,0.5,0.7,0.6,1.2c0.1,0.5,0.2,1,0.2,1.5v0.7h-5.3v0.8c0,0.3,0.1,0.5,0.2,0.8 c0.1,0.2,0.3,0.4,0.4,0.6c0.2,0.2,0.4,0.3,0.6,0.3c0.2,0.1,0.5,0.1,0.7,0.1c0.5,0,0.9-0.1,1.3-0.4c0.4-0.3,0.6-0.7,0.6-1.2h1.4 c0,0.4-0.1,0.8-0.3,1.1c-0.2,0.3-0.4,0.6-0.7,0.8c-0.3,0.2-0.6,0.4-1,0.5c-0.4,0.1-0.8,0.2-1.2,0.2c-0.6,0-1.1-0.1-1.5-0.3 c-0.4-0.2-0.8-0.5-1.1-0.9c-0.3-0.4-0.5-0.8-0.6-1.3C286.2,29.2,286.1,28.7,286.1,28 M287.6,27.3h3.9v-0.4c0-0.3-0.1-0.5-0.2-0.8 c-0.1-0.2-0.2-0.4-0.4-0.6c-0.2-0.2-0.4-0.3-0.6-0.4c-0.2-0.1-0.5-0.1-0.7-0.1c-0.3,0-0.5,0-0.7,0.1c-0.2,0.1-0.4,0.2-0.6,0.4 c-0.2,0.2-0.3,0.4-0.4,0.6c-0.1,0.2-0.2,0.5-0.2,0.8V27.3z"></path> <path class="st1" d="M294.5,28.1c0-0.6,0.1-1.2,0.2-1.7c0.1-0.5,0.4-1,0.7-1.3c0.3-0.4,0.6-0.6,1.1-0.8c0.4-0.2,0.9-0.3,1.4-0.3 c0.4,0,0.8,0.1,1.2,0.2c0.4,0.1,0.7,0.3,1,0.5c0.3,0.2,0.5,0.5,0.7,0.9c0.2,0.4,0.3,0.8,0.3,1.2h-1.4c0-0.3-0.1-0.6-0.2-0.8 c-0.1-0.2-0.2-0.4-0.4-0.5c-0.2-0.1-0.4-0.2-0.6-0.3c-0.2-0.1-0.4-0.1-0.7-0.1c-0.2,0-0.5,0-0.7,0.1c-0.2,0.1-0.4,0.2-0.6,0.4 c-0.2,0.2-0.3,0.4-0.4,0.6c-0.1,0.2-0.2,0.5-0.2,0.8v2.3c0,0.3,0,0.5,0.1,0.8c0.1,0.2,0.2,0.4,0.4,0.6c0.2,0.2,0.4,0.3,0.6,0.4 c0.2,0.1,0.5,0.1,0.7,0.1c0.5,0,0.9-0.1,1.3-0.4c0.3-0.3,0.5-0.7,0.6-1.3h1.4c-0.1,0.5-0.2,0.9-0.4,1.3c-0.2,0.4-0.4,0.7-0.7,0.9 c-0.3,0.2-0.6,0.4-1,0.5c-0.4,0.1-0.8,0.2-1.2,0.2c-0.6,0-1.1-0.1-1.5-0.3c-0.4-0.2-0.8-0.5-1-0.9c-0.3-0.4-0.5-0.8-0.6-1.3 C294.6,29.2,294.5,28.7,294.5,28.1"></path> <polygon class="st1" points="302.3,25.3 302.3,24.1 303.6,24.1 303.6,21.4 305,21.4 305,24.1 306.8,24.1 306.8,25.3 305,25.3 305,30.8 306.8,30.8 306.8,32 303.6,32 303.6,25.3 "></polygon> <path class="st1" d="M308.4,21.4h1.5v1.5h-1.5V21.4z M308.4,24.1h1.4V32h-1.4V24.1z"></path> <path class="st1" d="M311.8,28c0-0.6,0.1-1.2,0.2-1.7c0.1-0.5,0.4-1,0.7-1.3c0.3-0.4,0.7-0.6,1.1-0.9c0.4-0.2,1-0.3,1.6-0.3 c0.6,0,1.1,0.1,1.6,0.3c0.4,0.2,0.8,0.5,1.1,0.9c0.3,0.4,0.5,0.8,0.7,1.3c0.1,0.5,0.2,1.1,0.2,1.7c0,0.6-0.1,1.2-0.2,1.7 c-0.1,0.5-0.4,0.9-0.7,1.3c-0.3,0.4-0.7,0.7-1.1,0.9c-0.4,0.2-1,0.3-1.6,0.3c-0.6,0-1.1-0.1-1.6-0.3c-0.4-0.2-0.8-0.5-1.1-0.9 c-0.3-0.4-0.5-0.8-0.7-1.3C311.8,29.2,311.8,28.7,311.8,28 M313.2,29.3c0,0.3,0.1,0.5,0.2,0.7c0.1,0.2,0.3,0.4,0.5,0.6 c0.2,0.2,0.4,0.3,0.7,0.4c0.3,0.1,0.5,0.1,0.8,0.1c0.3,0,0.5,0,0.8-0.1c0.3-0.1,0.5-0.2,0.7-0.4c0.2-0.2,0.3-0.3,0.5-0.6 c0.1-0.2,0.2-0.5,0.2-0.7v-2.5c0-0.3-0.1-0.5-0.2-0.7c-0.1-0.2-0.3-0.4-0.5-0.6c-0.2-0.2-0.4-0.3-0.7-0.4c-0.3-0.1-0.5-0.1-0.8-0.1 c-0.3,0-0.5,0-0.8,0.1c-0.3,0.1-0.5,0.2-0.7,0.4c-0.2,0.2-0.3,0.3-0.5,0.6c-0.1,0.2-0.2,0.5-0.2,0.7V29.3z"></path> <path class="st1" d="M320.8,32v-7.9h1.4v1.3c0.2-0.5,0.5-0.8,0.9-1.1c0.4-0.3,0.9-0.4,1.5-0.4c0.4,0,0.7,0.1,1,0.2 c0.3,0.1,0.6,0.3,0.8,0.5c0.2,0.2,0.4,0.5,0.5,0.9c0.1,0.4,0.2,0.8,0.2,1.3V32h-1.4v-5.1c0-0.6-0.1-1-0.3-1.4 c-0.2-0.3-0.6-0.5-1.2-0.5c-0.3,0-0.6,0.1-0.8,0.2c-0.2,0.1-0.4,0.3-0.6,0.5c-0.2,0.2-0.3,0.5-0.4,0.8c-0.1,0.3-0.1,0.6-0.1,1V32 H320.8z"></path> <path class="st1" d="M329,29.5h1.4c0,0.5,0.2,0.9,0.6,1.2c0.4,0.3,0.8,0.4,1.3,0.4c0.5,0,0.9-0.1,1.2-0.3c0.3-0.2,0.5-0.5,0.5-0.9 c0-0.3-0.1-0.6-0.3-0.8c-0.2-0.2-0.6-0.3-1.1-0.4l-1.3-0.3c-0.7-0.1-1.2-0.4-1.5-0.8c-0.4-0.4-0.5-0.9-0.5-1.5 c0-0.3,0.1-0.6,0.2-0.9c0.1-0.3,0.3-0.5,0.6-0.7c0.3-0.2,0.6-0.4,0.9-0.5c0.4-0.1,0.7-0.2,1.2-0.2c0.4,0,0.7,0,1.1,0.1 c0.4,0.1,0.7,0.3,1,0.5c0.3,0.2,0.5,0.5,0.7,0.8c0.2,0.3,0.3,0.7,0.3,1.1h-1.4c0-0.5-0.2-0.9-0.5-1.1c-0.3-0.2-0.7-0.3-1.1-0.3 c-0.4,0-0.8,0.1-1.1,0.3c-0.3,0.2-0.5,0.5-0.5,0.8c0,0.3,0.1,0.6,0.3,0.7c0.2,0.2,0.5,0.3,0.9,0.4l1.3,0.3c0.8,0.2,1.4,0.4,1.8,0.8 c0.4,0.4,0.6,0.9,0.6,1.5c0,0.3-0.1,0.6-0.2,0.9c-0.1,0.3-0.4,0.5-0.6,0.7c-0.3,0.2-0.6,0.4-1,0.5c-0.4,0.1-0.8,0.2-1.3,0.2 c-0.4,0-0.9-0.1-1.2-0.2c-0.4-0.1-0.7-0.3-1-0.5c-0.3-0.2-0.5-0.5-0.7-0.8C329,30.3,329,30,329,29.5"></path> </svg> 